<?xml version="1.0" standalone="no"?>
<!DOCTYPE svg PUBLIC "-//W3C//DTD SVG 20010904//EN"
 "http://www.w3.org/TR/2001/REC-SVG-20010904/DTD/svg10.dtd">
<svg version="1.0" xmlns="http://www.w3.org/2000/svg"
 width="1000.000000pt" height="1000.000000pt" viewBox="0 0 1000.000000 1000.000000"
 preserveAspectRatio="xMidYMid meet">
<metadata>
Created by potrace 1.11, written by Peter Selinger 2001-2013
</metadata>
<g transform="translate(0.000000,1000.000000) scale(0.100000,-0.100000)"
fill="#000000" stroke="none">
<path d="M4470 7320 c-422 -58 -741 -263 -895 -575 -80 -162 -113 -350 -94
-541 21 -227 88 -365 258 -534 155 -154 324 -250 681 -385 388 -147 499 -201
625 -302 45 -37 69 -66 95 -117 32 -64 35 -76 35 -160 0 -77 -5 -100 -27 -148
-36 -77 -103 -142 -191 -183 -101 -48 -174 -65 -307 -72 -182 -9 -353 19 -545
88 l-85 31 0 244 0 244 -280 0 -280 0 2 -467 3 -468 125 -62 c143 -71 343
-140 510 -177 311 -69 686 -58 985 29 106 31 267 105 356 165 93 62 225 202
283 298 95 159 138 331 138 547 -1 269 -70 437 -261 625 -153 152 -307 241
-676 390 -594 240 -742 348 -762 554 -15 167 96 299 296 351 138 35 381 29
598 -15 54 -11 106 -23 116 -26 16 -5 17 -27 17 -275 l0 -269 280 0 280 0 -2
508 -3 507 -55 27 c-127 62 -364 122 -610 153 -146 19 -516 28 -610 15z"/>
<path d="M600 6955 l0 -305 700 0 701 0 -3 -907 c-4 -1018 1 -947 -79 -1112
-54 -109 -137 -194 -240 -245 -117 -57 -184 -71 -339 -71 -213 1 -326 28 -521
126 l-96 47 -116 -261 c-63 -144 -117 -269 -119 -277 -4 -19 203 -124 318
-162 225 -75 516 -104 775 -78 534 54 920 354 1043 810 63 233 60 168 63 1513
l4 1227 -1046 0 -1045 0 0 -305z"/>
<path d="M5082 3380 c-49 -22 -81 -79 -82 -142 l0 -38 -60 0 -60 0 0 -35 0
-35 60 0 60 0 0 -180 0 -180 -60 0 -60 0 0 -35 0 -35 205 0 205 0 0 35 0 35
-105 0 -105 0 0 180 0 180 105 0 105 0 0 35 0 35 -105 0 c-118 0 -121 3 -91
75 20 47 47 58 127 53 71 -5 79 -1 79 42 0 22 -27 30 -110 30 -43 0 -80 -7
-108 -20z"/>
<path d="M6763 3300 c-19 -8 -23 -17 -23 -54 l0 -45 -57 -3 c-57 -3 -58 -3
-61 -35 l-3 -33 60 0 61 0 0 -125 c0 -68 5 -147 11 -176 29 -134 181 -184 330
-109 41 21 47 35 26 63 -11 16 -14 16 -52 -3 -26 -13 -59 -20 -98 -20 -54 0
-62 3 -93 34 l-34 34 0 151 0 151 130 0 130 0 0 35 0 35 -130 0 -130 0 0 55
c0 51 -2 55 -22 54 -13 0 -33 -4 -45 -9z"/>
<path d="M5630 3201 c-119 -36 -175 -126 -169 -268 7 -138 71 -221 188 -243
68 -13 155 1 223 36 50 25 57 38 35 68 -13 17 -15 17 -58 -4 -66 -34 -172 -39
-228 -11 -44 23 -80 80 -81 128 0 22 1 23 193 25 l192 3 3 38 c5 58 -25 146
-62 183 -17 17 -50 37 -71 43 -45 12 -127 13 -165 2z m145 -75 c35 -15 75 -67
75 -98 0 -16 -14 -18 -155 -18 l-155 0 10 26 c20 52 32 66 73 85 50 22 105 24
152 5z"/>
<path d="M6230 3200 c-25 -4 -64 -15 -86 -25 -41 -16 -41 -17 -31 -46 13 -34
12 -33 67 -14 23 8 71 15 106 15 84 0 104 -18 104 -92 l0 -53 -97 0 c-78 0
-106 -4 -137 -20 -53 -27 -78 -64 -83 -122 -8 -94 52 -153 155 -153 63 0 108
17 142 55 l25 27 5 -34 5 -33 68 -3 67 -3 0 31 c0 28 -3 30 -35 30 l-35 0 0
165 c0 185 -10 224 -67 257 -36 21 -114 29 -173 18z m114 -276 c45 -7 46 -7
46 -44 0 -66 -62 -120 -139 -120 -53 0 -69 7 -86 41 -20 38 -19 53 8 84 31 37
88 50 171 39z"/>
<path d="M8175 3198 c-16 -6 -44 -21 -62 -34 -41 -31 -49 -30 -56 6 l-6 30
-96 0 -95 0 0 -35 0 -35 65 0 65 0 0 -180 0 -180 -65 0 -65 0 0 -35 0 -35 205
0 205 0 0 35 0 35 -95 0 -95 0 0 149 0 149 30 26 c35 29 102 50 130 41 21 -7
40 -53 40 -96 0 -26 3 -29 35 -29 35 0 35 1 35 43 0 57 -16 110 -40 132 -23
21 -94 28 -135 13z"/>
<path d="M8630 3201 c-119 -36 -175 -126 -169 -268 7 -138 71 -221 188 -243
68 -13 155 1 223 36 50 25 57 38 35 68 -13 17 -15 17 -58 -4 -66 -34 -172 -39
-228 -11 -44 23 -80 80 -81 128 0 22 1 23 193 25 l192 3 3 38 c5 58 -25 146
-62 183 -17 17 -50 37 -71 43 -45 12 -127 13 -165 2z m145 -75 c35 -15 75 -67
75 -98 0 -16 -14 -18 -155 -18 l-155 0 10 26 c20 52 32 66 73 85 50 22 105 24
152 5z"/>
<path d="M9205 3197 c-78 -31 -105 -66 -105 -137 0 -73 44 -101 236 -150 50
-12 94 -45 94 -70 0 -55 -42 -80 -133 -80 -51 0 -76 6 -123 30 -61 30 -60 30
-86 -14 -13 -24 3 -37 81 -67 122 -47 266 -19 319 61 19 28 23 44 19 85 -6 61
-41 94 -125 118 -31 9 -86 24 -121 34 -71 20 -87 37 -77 77 15 59 143 73 234
27 23 -12 43 -21 45 -21 11 0 29 62 21 70 -5 5 -36 19 -68 30 -66 22 -163 25
-211 7z"/>
<path d="M7220 3165 c0 -33 2 -35 34 -35 l34 0 4 -172 c3 -159 5 -176 26 -209
27 -45 70 -64 142 -63 60 1 102 18 139 58 27 28 41 21 41 -21 0 -22 4 -23 65
-23 l65 0 0 30 c0 26 -3 30 -29 30 -17 0 -31 6 -35 16 -3 9 -6 108 -6 220 l0
205 -72 -3 -73 -3 -3 -32 c-3 -32 -2 -33 32 -33 l36 0 0 -133 c0 -125 -1 -134
-25 -170 -31 -45 -71 -67 -125 -67 -91 0 -100 25 -100 261 l0 179 -75 0 -75 0
0 -35z"/>
</g>
</svg>
